<mxfile host="app.diagrams.net" agent="Mozilla/5.0 (Windows NT 10.0; Win64; x64) AppleWebKit/537.36 (KHTML, like Gecko) Chrome/128.0.0.0 Safari/537.36" version="24.7.10">
  <diagram name="Page-1" id="xZQDsr4Xxf6uGHRCzoWH">
    <mxGraphModel dx="2368" dy="1765" grid="1" gridSize="10" guides="1" tooltips="1" connect="1" arrows="1" fold="1" page="1" pageScale="1" pageWidth="850" pageHeight="1100" math="0" shadow="0">
      <root>
        <mxCell id="0" />
        <mxCell id="1" parent="0" />
        <mxCell id="k_N3MxR13cJNEKGU2N6l-7" value="User" style="swimlane;fontStyle=1;align=center;verticalAlign=top;childLayout=stackLayout;horizontal=1;startSize=26;horizontalStack=0;resizeParent=1;resizeParentMax=0;resizeLast=0;collapsible=1;marginBottom=0;whiteSpace=wrap;html=1;" vertex="1" parent="1">
          <mxGeometry x="277.5" y="230" width="242.5" height="330" as="geometry" />
        </mxCell>
        <mxCell id="k_N3MxR13cJNEKGU2N6l-33" value="- userId: long" style="text;strokeColor=none;fillColor=none;align=left;verticalAlign=top;spacingLeft=4;spacingRight=4;overflow=hidden;rotatable=0;points=[[0,0.5],[1,0.5]];portConstraint=eastwest;whiteSpace=wrap;html=1;" vertex="1" parent="k_N3MxR13cJNEKGU2N6l-7">
          <mxGeometry y="26" width="242.5" height="26" as="geometry" />
        </mxCell>
        <mxCell id="k_N3MxR13cJNEKGU2N6l-8" value="- firstname: String" style="text;strokeColor=none;fillColor=none;align=left;verticalAlign=top;spacingLeft=4;spacingRight=4;overflow=hidden;rotatable=0;points=[[0,0.5],[1,0.5]];portConstraint=eastwest;whiteSpace=wrap;html=1;" vertex="1" parent="k_N3MxR13cJNEKGU2N6l-7">
          <mxGeometry y="52" width="242.5" height="26" as="geometry" />
        </mxCell>
        <mxCell id="k_N3MxR13cJNEKGU2N6l-14" value="- lastname: String" style="text;strokeColor=none;fillColor=none;align=left;verticalAlign=top;spacingLeft=4;spacingRight=4;overflow=hidden;rotatable=0;points=[[0,0.5],[1,0.5]];portConstraint=eastwest;whiteSpace=wrap;html=1;" vertex="1" parent="k_N3MxR13cJNEKGU2N6l-7">
          <mxGeometry y="78" width="242.5" height="26" as="geometry" />
        </mxCell>
        <mxCell id="k_N3MxR13cJNEKGU2N6l-17" value="- username: String" style="text;strokeColor=none;fillColor=none;align=left;verticalAlign=top;spacingLeft=4;spacingRight=4;overflow=hidden;rotatable=0;points=[[0,0.5],[1,0.5]];portConstraint=eastwest;whiteSpace=wrap;html=1;" vertex="1" parent="k_N3MxR13cJNEKGU2N6l-7">
          <mxGeometry y="104" width="242.5" height="26" as="geometry" />
        </mxCell>
        <mxCell id="k_N3MxR13cJNEKGU2N6l-16" value="- email: String" style="text;strokeColor=none;fillColor=none;align=left;verticalAlign=top;spacingLeft=4;spacingRight=4;overflow=hidden;rotatable=0;points=[[0,0.5],[1,0.5]];portConstraint=eastwest;whiteSpace=wrap;html=1;" vertex="1" parent="k_N3MxR13cJNEKGU2N6l-7">
          <mxGeometry y="130" width="242.5" height="26" as="geometry" />
        </mxCell>
        <mxCell id="k_N3MxR13cJNEKGU2N6l-15" value="- password: String" style="text;strokeColor=none;fillColor=none;align=left;verticalAlign=top;spacingLeft=4;spacingRight=4;overflow=hidden;rotatable=0;points=[[0,0.5],[1,0.5]];portConstraint=eastwest;whiteSpace=wrap;html=1;" vertex="1" parent="k_N3MxR13cJNEKGU2N6l-7">
          <mxGeometry y="156" width="242.5" height="26" as="geometry" />
        </mxCell>
        <mxCell id="k_N3MxR13cJNEKGU2N6l-13" value="- phone: String" style="text;strokeColor=none;fillColor=none;align=left;verticalAlign=top;spacingLeft=4;spacingRight=4;overflow=hidden;rotatable=0;points=[[0,0.5],[1,0.5]];portConstraint=eastwest;whiteSpace=wrap;html=1;" vertex="1" parent="k_N3MxR13cJNEKGU2N6l-7">
          <mxGeometry y="182" width="242.5" height="26" as="geometry" />
        </mxCell>
        <mxCell id="k_N3MxR13cJNEKGU2N6l-19" value="- role: String" style="text;strokeColor=none;fillColor=none;align=left;verticalAlign=top;spacingLeft=4;spacingRight=4;overflow=hidden;rotatable=0;points=[[0,0.5],[1,0.5]];portConstraint=eastwest;whiteSpace=wrap;html=1;" vertex="1" parent="k_N3MxR13cJNEKGU2N6l-7">
          <mxGeometry y="208" width="242.5" height="26" as="geometry" />
        </mxCell>
        <mxCell id="k_N3MxR13cJNEKGU2N6l-18" value="- active: boolean" style="text;strokeColor=none;fillColor=none;align=left;verticalAlign=top;spacingLeft=4;spacingRight=4;overflow=hidden;rotatable=0;points=[[0,0.5],[1,0.5]];portConstraint=eastwest;whiteSpace=wrap;html=1;" vertex="1" parent="k_N3MxR13cJNEKGU2N6l-7">
          <mxGeometry y="234" width="242.5" height="26" as="geometry" />
        </mxCell>
        <mxCell id="k_N3MxR13cJNEKGU2N6l-20" value="- cakeList: List&amp;lt;Cake&amp;gt;" style="text;strokeColor=none;fillColor=none;align=left;verticalAlign=top;spacingLeft=4;spacingRight=4;overflow=hidden;rotatable=0;points=[[0,0.5],[1,0.5]];portConstraint=eastwest;whiteSpace=wrap;html=1;" vertex="1" parent="k_N3MxR13cJNEKGU2N6l-7">
          <mxGeometry y="260" width="242.5" height="26" as="geometry" />
        </mxCell>
        <mxCell id="k_N3MxR13cJNEKGU2N6l-9" value="" style="line;strokeWidth=1;fillColor=none;align=left;verticalAlign=middle;spacingTop=-1;spacingLeft=3;spacingRight=3;rotatable=0;labelPosition=right;points=[];portConstraint=eastwest;strokeColor=inherit;" vertex="1" parent="k_N3MxR13cJNEKGU2N6l-7">
          <mxGeometry y="286" width="242.5" height="44" as="geometry" />
        </mxCell>
        <mxCell id="k_N3MxR13cJNEKGU2N6l-21" value="Cake" style="swimlane;fontStyle=1;align=center;verticalAlign=top;childLayout=stackLayout;horizontal=1;startSize=26;horizontalStack=0;resizeParent=1;resizeParentMax=0;resizeLast=0;collapsible=1;marginBottom=0;whiteSpace=wrap;html=1;" vertex="1" parent="1">
          <mxGeometry x="670" y="250" width="210" height="254" as="geometry" />
        </mxCell>
        <mxCell id="k_N3MxR13cJNEKGU2N6l-22" value="- cakeId: long" style="text;strokeColor=none;fillColor=none;align=left;verticalAlign=top;spacingLeft=4;spacingRight=4;overflow=hidden;rotatable=0;points=[[0,0.5],[1,0.5]];portConstraint=eastwest;whiteSpace=wrap;html=1;" vertex="1" parent="k_N3MxR13cJNEKGU2N6l-21">
          <mxGeometry y="26" width="210" height="26" as="geometry" />
        </mxCell>
        <mxCell id="k_N3MxR13cJNEKGU2N6l-23" value="- cakeName: String" style="text;strokeColor=none;fillColor=none;align=left;verticalAlign=top;spacingLeft=4;spacingRight=4;overflow=hidden;rotatable=0;points=[[0,0.5],[1,0.5]];portConstraint=eastwest;whiteSpace=wrap;html=1;" vertex="1" parent="k_N3MxR13cJNEKGU2N6l-21">
          <mxGeometry y="52" width="210" height="26" as="geometry" />
        </mxCell>
        <mxCell id="k_N3MxR13cJNEKGU2N6l-24" value="- cakeImagePath: String" style="text;strokeColor=none;fillColor=none;align=left;verticalAlign=top;spacingLeft=4;spacingRight=4;overflow=hidden;rotatable=0;points=[[0,0.5],[1,0.5]];portConstraint=eastwest;whiteSpace=wrap;html=1;" vertex="1" parent="k_N3MxR13cJNEKGU2N6l-21">
          <mxGeometry y="78" width="210" height="26" as="geometry" />
        </mxCell>
        <mxCell id="k_N3MxR13cJNEKGU2N6l-25" value="- description: String" style="text;strokeColor=none;fillColor=none;align=left;verticalAlign=top;spacingLeft=4;spacingRight=4;overflow=hidden;rotatable=0;points=[[0,0.5],[1,0.5]];portConstraint=eastwest;whiteSpace=wrap;html=1;" vertex="1" parent="k_N3MxR13cJNEKGU2N6l-21">
          <mxGeometry y="104" width="210" height="26" as="geometry" />
        </mxCell>
        <mxCell id="k_N3MxR13cJNEKGU2N6l-26" value="- calories: int" style="text;strokeColor=none;fillColor=none;align=left;verticalAlign=top;spacingLeft=4;spacingRight=4;overflow=hidden;rotatable=0;points=[[0,0.5],[1,0.5]];portConstraint=eastwest;whiteSpace=wrap;html=1;" vertex="1" parent="k_N3MxR13cJNEKGU2N6l-21">
          <mxGeometry y="130" width="210" height="26" as="geometry" />
        </mxCell>
        <mxCell id="k_N3MxR13cJNEKGU2N6l-27" value="- price: int" style="text;strokeColor=none;fillColor=none;align=left;verticalAlign=top;spacingLeft=4;spacingRight=4;overflow=hidden;rotatable=0;points=[[0,0.5],[1,0.5]];portConstraint=eastwest;whiteSpace=wrap;html=1;" vertex="1" parent="k_N3MxR13cJNEKGU2N6l-21">
          <mxGeometry y="156" width="210" height="26" as="geometry" />
        </mxCell>
        <mxCell id="k_N3MxR13cJNEKGU2N6l-28" value="- userList: List&amp;lt;User&amp;gt;" style="text;strokeColor=none;fillColor=none;align=left;verticalAlign=top;spacingLeft=4;spacingRight=4;overflow=hidden;rotatable=0;points=[[0,0.5],[1,0.5]];portConstraint=eastwest;whiteSpace=wrap;html=1;" vertex="1" parent="k_N3MxR13cJNEKGU2N6l-21">
          <mxGeometry y="182" width="210" height="26" as="geometry" />
        </mxCell>
        <mxCell id="k_N3MxR13cJNEKGU2N6l-31" value="" style="line;strokeWidth=1;fillColor=none;align=left;verticalAlign=middle;spacingTop=-1;spacingLeft=3;spacingRight=3;rotatable=0;labelPosition=right;points=[];portConstraint=eastwest;strokeColor=inherit;" vertex="1" parent="k_N3MxR13cJNEKGU2N6l-21">
          <mxGeometry y="208" width="210" height="46" as="geometry" />
        </mxCell>
        <mxCell id="k_N3MxR13cJNEKGU2N6l-35" value="" style="endArrow=none;html=1;rounded=0;entryX=-0.002;entryY=0.683;entryDx=0;entryDy=0;entryPerimeter=0;" edge="1" parent="1" target="k_N3MxR13cJNEKGU2N6l-26">
          <mxGeometry relative="1" as="geometry">
            <mxPoint x="520" y="398" as="sourcePoint" />
            <mxPoint x="660" y="398" as="targetPoint" />
          </mxGeometry>
        </mxCell>
        <mxCell id="k_N3MxR13cJNEKGU2N6l-41" value="0..*" style="text;html=1;align=center;verticalAlign=middle;whiteSpace=wrap;rounded=0;" vertex="1" parent="1">
          <mxGeometry x="520" y="370" width="30" height="30" as="geometry" />
        </mxCell>
        <mxCell id="k_N3MxR13cJNEKGU2N6l-42" value="0..*" style="text;html=1;align=center;verticalAlign=middle;whiteSpace=wrap;rounded=0;" vertex="1" parent="1">
          <mxGeometry x="640" y="370" width="30" height="30" as="geometry" />
        </mxCell>
        <mxCell id="k_N3MxR13cJNEKGU2N6l-43" value="UserService" style="swimlane;fontStyle=1;align=center;verticalAlign=top;childLayout=stackLayout;horizontal=1;startSize=26;horizontalStack=0;resizeParent=1;resizeParentMax=0;resizeLast=0;collapsible=1;marginBottom=0;whiteSpace=wrap;html=1;" vertex="1" parent="1">
          <mxGeometry x="277.5" y="-250" width="242.5" height="148" as="geometry" />
        </mxCell>
        <mxCell id="k_N3MxR13cJNEKGU2N6l-91" value="+ userRepository : UserRepository" style="text;strokeColor=none;fillColor=none;align=left;verticalAlign=top;spacingLeft=4;spacingRight=4;overflow=hidden;rotatable=0;points=[[0,0.5],[1,0.5]];portConstraint=eastwest;whiteSpace=wrap;html=1;" vertex="1" parent="k_N3MxR13cJNEKGU2N6l-43">
          <mxGeometry y="26" width="242.5" height="26" as="geometry" />
        </mxCell>
        <mxCell id="k_N3MxR13cJNEKGU2N6l-54" value="" style="line;strokeWidth=1;fillColor=none;align=left;verticalAlign=middle;spacingTop=-1;spacingLeft=3;spacingRight=3;rotatable=0;labelPosition=right;points=[];portConstraint=eastwest;strokeColor=inherit;" vertex="1" parent="k_N3MxR13cJNEKGU2N6l-43">
          <mxGeometry y="52" width="242.5" height="44" as="geometry" />
        </mxCell>
        <mxCell id="k_N3MxR13cJNEKGU2N6l-53" value="+ addUser(in user: User): void" style="text;strokeColor=none;fillColor=none;align=left;verticalAlign=top;spacingLeft=4;spacingRight=4;overflow=hidden;rotatable=0;points=[[0,0.5],[1,0.5]];portConstraint=eastwest;whiteSpace=wrap;html=1;" vertex="1" parent="k_N3MxR13cJNEKGU2N6l-43">
          <mxGeometry y="96" width="242.5" height="26" as="geometry" />
        </mxCell>
        <mxCell id="k_N3MxR13cJNEKGU2N6l-55" value="+ getLoggedInUser(): User" style="text;strokeColor=none;fillColor=none;align=left;verticalAlign=top;spacingLeft=4;spacingRight=4;overflow=hidden;rotatable=0;points=[[0,0.5],[1,0.5]];portConstraint=eastwest;whiteSpace=wrap;html=1;" vertex="1" parent="k_N3MxR13cJNEKGU2N6l-43">
          <mxGeometry y="122" width="242.5" height="26" as="geometry" />
        </mxCell>
        <mxCell id="k_N3MxR13cJNEKGU2N6l-56" value="CakeService" style="swimlane;fontStyle=1;align=center;verticalAlign=top;childLayout=stackLayout;horizontal=1;startSize=26;horizontalStack=0;resizeParent=1;resizeParentMax=0;resizeLast=0;collapsible=1;marginBottom=0;whiteSpace=wrap;html=1;" vertex="1" parent="1">
          <mxGeometry x="670" y="-250" width="210" height="174" as="geometry" />
        </mxCell>
        <mxCell id="k_N3MxR13cJNEKGU2N6l-92" value="+ cakeRepository : CakeRepository" style="text;strokeColor=none;fillColor=none;align=left;verticalAlign=top;spacingLeft=4;spacingRight=4;overflow=hidden;rotatable=0;points=[[0,0.5],[1,0.5]];portConstraint=eastwest;whiteSpace=wrap;html=1;" vertex="1" parent="k_N3MxR13cJNEKGU2N6l-56">
          <mxGeometry y="26" width="210" height="26" as="geometry" />
        </mxCell>
        <mxCell id="k_N3MxR13cJNEKGU2N6l-57" value="" style="line;strokeWidth=1;fillColor=none;align=left;verticalAlign=middle;spacingTop=-1;spacingLeft=3;spacingRight=3;rotatable=0;labelPosition=right;points=[];portConstraint=eastwest;strokeColor=inherit;" vertex="1" parent="k_N3MxR13cJNEKGU2N6l-56">
          <mxGeometry y="52" width="210" height="44" as="geometry" />
        </mxCell>
        <mxCell id="k_N3MxR13cJNEKGU2N6l-60" value="+ addCake(in cake: Cake): void" style="text;strokeColor=none;fillColor=none;align=left;verticalAlign=top;spacingLeft=4;spacingRight=4;overflow=hidden;rotatable=0;points=[[0,0.5],[1,0.5]];portConstraint=eastwest;whiteSpace=wrap;html=1;" vertex="1" parent="k_N3MxR13cJNEKGU2N6l-56">
          <mxGeometry y="96" width="210" height="26" as="geometry" />
        </mxCell>
        <mxCell id="k_N3MxR13cJNEKGU2N6l-58" value="+ getCake(in cakeId: long): Cake" style="text;strokeColor=none;fillColor=none;align=left;verticalAlign=top;spacingLeft=4;spacingRight=4;overflow=hidden;rotatable=0;points=[[0,0.5],[1,0.5]];portConstraint=eastwest;whiteSpace=wrap;html=1;" vertex="1" parent="k_N3MxR13cJNEKGU2N6l-56">
          <mxGeometry y="122" width="210" height="26" as="geometry" />
        </mxCell>
        <mxCell id="k_N3MxR13cJNEKGU2N6l-59" value="+ getAllCakes(): List&amp;lt;Cake&amp;gt;" style="text;strokeColor=none;fillColor=none;align=left;verticalAlign=top;spacingLeft=4;spacingRight=4;overflow=hidden;rotatable=0;points=[[0,0.5],[1,0.5]];portConstraint=eastwest;whiteSpace=wrap;html=1;" vertex="1" parent="k_N3MxR13cJNEKGU2N6l-56">
          <mxGeometry y="148" width="210" height="26" as="geometry" />
        </mxCell>
        <mxCell id="k_N3MxR13cJNEKGU2N6l-65" value="&amp;lt;&amp;lt;interface&amp;gt;&amp;gt;&lt;div&gt;CakeRepository&lt;/div&gt;" style="swimlane;fontStyle=1;align=center;verticalAlign=top;childLayout=stackLayout;horizontal=1;startSize=40;horizontalStack=0;resizeParent=1;resizeParentMax=0;resizeLast=0;collapsible=1;marginBottom=0;whiteSpace=wrap;html=1;" vertex="1" parent="1">
          <mxGeometry x="670" y="10" width="210" height="68" as="geometry" />
        </mxCell>
        <mxCell id="k_N3MxR13cJNEKGU2N6l-66" value="" style="line;strokeWidth=1;fillColor=none;align=left;verticalAlign=middle;spacingTop=-1;spacingLeft=3;spacingRight=3;rotatable=0;labelPosition=right;points=[];portConstraint=eastwest;strokeColor=inherit;" vertex="1" parent="k_N3MxR13cJNEKGU2N6l-65">
          <mxGeometry y="40" width="210" height="28" as="geometry" />
        </mxCell>
        <mxCell id="k_N3MxR13cJNEKGU2N6l-68" value="UserDTO" style="swimlane;fontStyle=1;align=center;verticalAlign=top;childLayout=stackLayout;horizontal=1;startSize=26;horizontalStack=0;resizeParent=1;resizeParentMax=0;resizeLast=0;collapsible=1;marginBottom=0;whiteSpace=wrap;html=1;" vertex="1" parent="1">
          <mxGeometry x="-60" y="-550" width="160" height="252" as="geometry" />
        </mxCell>
        <mxCell id="k_N3MxR13cJNEKGU2N6l-69" value="- userId: long" style="text;strokeColor=none;fillColor=none;align=left;verticalAlign=top;spacingLeft=4;spacingRight=4;overflow=hidden;rotatable=0;points=[[0,0.5],[1,0.5]];portConstraint=eastwest;whiteSpace=wrap;html=1;" vertex="1" parent="k_N3MxR13cJNEKGU2N6l-68">
          <mxGeometry y="26" width="160" height="26" as="geometry" />
        </mxCell>
        <mxCell id="k_N3MxR13cJNEKGU2N6l-70" value="- firstname: String" style="text;strokeColor=none;fillColor=none;align=left;verticalAlign=top;spacingLeft=4;spacingRight=4;overflow=hidden;rotatable=0;points=[[0,0.5],[1,0.5]];portConstraint=eastwest;whiteSpace=wrap;html=1;" vertex="1" parent="k_N3MxR13cJNEKGU2N6l-68">
          <mxGeometry y="52" width="160" height="26" as="geometry" />
        </mxCell>
        <mxCell id="k_N3MxR13cJNEKGU2N6l-71" value="- lastname: String" style="text;strokeColor=none;fillColor=none;align=left;verticalAlign=top;spacingLeft=4;spacingRight=4;overflow=hidden;rotatable=0;points=[[0,0.5],[1,0.5]];portConstraint=eastwest;whiteSpace=wrap;html=1;" vertex="1" parent="k_N3MxR13cJNEKGU2N6l-68">
          <mxGeometry y="78" width="160" height="26" as="geometry" />
        </mxCell>
        <mxCell id="k_N3MxR13cJNEKGU2N6l-72" value="- username: String" style="text;strokeColor=none;fillColor=none;align=left;verticalAlign=top;spacingLeft=4;spacingRight=4;overflow=hidden;rotatable=0;points=[[0,0.5],[1,0.5]];portConstraint=eastwest;whiteSpace=wrap;html=1;" vertex="1" parent="k_N3MxR13cJNEKGU2N6l-68">
          <mxGeometry y="104" width="160" height="26" as="geometry" />
        </mxCell>
        <mxCell id="k_N3MxR13cJNEKGU2N6l-73" value="- email: String" style="text;strokeColor=none;fillColor=none;align=left;verticalAlign=top;spacingLeft=4;spacingRight=4;overflow=hidden;rotatable=0;points=[[0,0.5],[1,0.5]];portConstraint=eastwest;whiteSpace=wrap;html=1;" vertex="1" parent="k_N3MxR13cJNEKGU2N6l-68">
          <mxGeometry y="130" width="160" height="26" as="geometry" />
        </mxCell>
        <mxCell id="k_N3MxR13cJNEKGU2N6l-74" value="- password: String" style="text;strokeColor=none;fillColor=none;align=left;verticalAlign=top;spacingLeft=4;spacingRight=4;overflow=hidden;rotatable=0;points=[[0,0.5],[1,0.5]];portConstraint=eastwest;whiteSpace=wrap;html=1;" vertex="1" parent="k_N3MxR13cJNEKGU2N6l-68">
          <mxGeometry y="156" width="160" height="26" as="geometry" />
        </mxCell>
        <mxCell id="k_N3MxR13cJNEKGU2N6l-75" value="- phone: String" style="text;strokeColor=none;fillColor=none;align=left;verticalAlign=top;spacingLeft=4;spacingRight=4;overflow=hidden;rotatable=0;points=[[0,0.5],[1,0.5]];portConstraint=eastwest;whiteSpace=wrap;html=1;" vertex="1" parent="k_N3MxR13cJNEKGU2N6l-68">
          <mxGeometry y="182" width="160" height="26" as="geometry" />
        </mxCell>
        <mxCell id="k_N3MxR13cJNEKGU2N6l-79" value="" style="line;strokeWidth=1;fillColor=none;align=left;verticalAlign=middle;spacingTop=-1;spacingLeft=3;spacingRight=3;rotatable=0;labelPosition=right;points=[];portConstraint=eastwest;strokeColor=inherit;" vertex="1" parent="k_N3MxR13cJNEKGU2N6l-68">
          <mxGeometry y="208" width="160" height="44" as="geometry" />
        </mxCell>
        <mxCell id="k_N3MxR13cJNEKGU2N6l-80" value="CakeController" style="swimlane;fontStyle=1;align=center;verticalAlign=top;childLayout=stackLayout;horizontal=1;startSize=26;horizontalStack=0;resizeParent=1;resizeParentMax=0;resizeLast=0;collapsible=1;marginBottom=0;whiteSpace=wrap;html=1;" vertex="1" parent="1">
          <mxGeometry x="670" y="-560" width="220" height="96" as="geometry" />
        </mxCell>
        <mxCell id="k_N3MxR13cJNEKGU2N6l-81" value="" style="line;strokeWidth=1;fillColor=none;align=left;verticalAlign=middle;spacingTop=-1;spacingLeft=3;spacingRight=3;rotatable=0;labelPosition=right;points=[];portConstraint=eastwest;strokeColor=inherit;" vertex="1" parent="k_N3MxR13cJNEKGU2N6l-80">
          <mxGeometry y="26" width="220" height="44" as="geometry" />
        </mxCell>
        <mxCell id="k_N3MxR13cJNEKGU2N6l-82" value="+ addCake(in cakeId: long): String" style="text;strokeColor=none;fillColor=none;align=left;verticalAlign=top;spacingLeft=4;spacingRight=4;overflow=hidden;rotatable=0;points=[[0,0.5],[1,0.5]];portConstraint=eastwest;whiteSpace=wrap;html=1;" vertex="1" parent="k_N3MxR13cJNEKGU2N6l-80">
          <mxGeometry y="70" width="220" height="26" as="geometry" />
        </mxCell>
        <mxCell id="k_N3MxR13cJNEKGU2N6l-85" value="UserController" style="swimlane;fontStyle=1;align=center;verticalAlign=top;childLayout=stackLayout;horizontal=1;startSize=26;horizontalStack=0;resizeParent=1;resizeParentMax=0;resizeLast=0;collapsible=1;marginBottom=0;whiteSpace=wrap;html=1;" vertex="1" parent="1">
          <mxGeometry x="277.5" y="-560" width="302.5" height="174" as="geometry" />
        </mxCell>
        <mxCell id="k_N3MxR13cJNEKGU2N6l-86" value="" style="line;strokeWidth=1;fillColor=none;align=left;verticalAlign=middle;spacingTop=-1;spacingLeft=3;spacingRight=3;rotatable=0;labelPosition=right;points=[];portConstraint=eastwest;strokeColor=inherit;" vertex="1" parent="k_N3MxR13cJNEKGU2N6l-85">
          <mxGeometry y="26" width="302.5" height="44" as="geometry" />
        </mxCell>
        <mxCell id="k_N3MxR13cJNEKGU2N6l-88" value="+ registerUserGet(): String" style="text;strokeColor=none;fillColor=none;align=left;verticalAlign=top;spacingLeft=4;spacingRight=4;overflow=hidden;rotatable=0;points=[[0,0.5],[1,0.5]];portConstraint=eastwest;whiteSpace=wrap;html=1;" vertex="1" parent="k_N3MxR13cJNEKGU2N6l-85">
          <mxGeometry y="70" width="302.5" height="26" as="geometry" />
        </mxCell>
        <mxCell id="k_N3MxR13cJNEKGU2N6l-87" value="+ registerUserPost(in userDTO: UserDTO): String" style="text;strokeColor=none;fillColor=none;align=left;verticalAlign=top;spacingLeft=4;spacingRight=4;overflow=hidden;rotatable=0;points=[[0,0.5],[1,0.5]];portConstraint=eastwest;whiteSpace=wrap;html=1;" vertex="1" parent="k_N3MxR13cJNEKGU2N6l-85">
          <mxGeometry y="96" width="302.5" height="26" as="geometry" />
        </mxCell>
        <mxCell id="k_N3MxR13cJNEKGU2N6l-89" value="+ loginUser(): String" style="text;strokeColor=none;fillColor=none;align=left;verticalAlign=top;spacingLeft=4;spacingRight=4;overflow=hidden;rotatable=0;points=[[0,0.5],[1,0.5]];portConstraint=eastwest;whiteSpace=wrap;html=1;" vertex="1" parent="k_N3MxR13cJNEKGU2N6l-85">
          <mxGeometry y="122" width="302.5" height="26" as="geometry" />
        </mxCell>
        <mxCell id="k_N3MxR13cJNEKGU2N6l-90" value="+ getUserProfile(): String" style="text;strokeColor=none;fillColor=none;align=left;verticalAlign=top;spacingLeft=4;spacingRight=4;overflow=hidden;rotatable=0;points=[[0,0.5],[1,0.5]];portConstraint=eastwest;whiteSpace=wrap;html=1;" vertex="1" parent="k_N3MxR13cJNEKGU2N6l-85">
          <mxGeometry y="148" width="302.5" height="26" as="geometry" />
        </mxCell>
        <mxCell id="k_N3MxR13cJNEKGU2N6l-93" value="&amp;lt;&amp;lt;interface&amp;gt;&amp;gt;&lt;div&gt;UserRepository&lt;br&gt;&lt;/div&gt;" style="swimlane;fontStyle=1;align=center;verticalAlign=top;childLayout=stackLayout;horizontal=1;startSize=40;horizontalStack=0;resizeParent=1;resizeParentMax=0;resizeLast=0;collapsible=1;marginBottom=0;whiteSpace=wrap;html=1;" vertex="1" parent="1">
          <mxGeometry x="292.5" y="10" width="210" height="68" as="geometry" />
        </mxCell>
        <mxCell id="k_N3MxR13cJNEKGU2N6l-94" value="" style="line;strokeWidth=1;fillColor=none;align=left;verticalAlign=middle;spacingTop=-1;spacingLeft=3;spacingRight=3;rotatable=0;labelPosition=right;points=[];portConstraint=eastwest;strokeColor=inherit;" vertex="1" parent="k_N3MxR13cJNEKGU2N6l-93">
          <mxGeometry y="40" width="210" height="28" as="geometry" />
        </mxCell>
        <mxCell id="k_N3MxR13cJNEKGU2N6l-95" value="&amp;lt;&amp;lt;Uses&amp;gt;&amp;gt;" style="endArrow=open;endSize=12;dashed=1;html=1;rounded=0;exitX=0.007;exitY=0.205;exitDx=0;exitDy=0;entryX=1;entryY=0.5;entryDx=0;entryDy=0;exitPerimeter=0;" edge="1" parent="1" source="k_N3MxR13cJNEKGU2N6l-87" target="k_N3MxR13cJNEKGU2N6l-71">
          <mxGeometry width="160" relative="1" as="geometry">
            <mxPoint x="410" y="-330" as="sourcePoint" />
            <mxPoint x="570" y="-330" as="targetPoint" />
          </mxGeometry>
        </mxCell>
        <mxCell id="k_N3MxR13cJNEKGU2N6l-96" value="&amp;lt;&amp;lt;Uses&amp;gt;&amp;gt;" style="endArrow=open;endSize=12;dashed=1;html=1;rounded=0;exitX=0.394;exitY=1.027;exitDx=0;exitDy=0;entryX=0.5;entryY=0;entryDx=0;entryDy=0;exitPerimeter=0;" edge="1" parent="1" source="k_N3MxR13cJNEKGU2N6l-90" target="k_N3MxR13cJNEKGU2N6l-43">
          <mxGeometry width="160" relative="1" as="geometry">
            <mxPoint x="389" y="-340" as="sourcePoint" />
            <mxPoint x="210" y="-340" as="targetPoint" />
          </mxGeometry>
        </mxCell>
        <mxCell id="k_N3MxR13cJNEKGU2N6l-97" value="&amp;lt;&amp;lt;Uses&amp;gt;&amp;gt;" style="endArrow=open;endSize=12;dashed=1;html=1;rounded=0;exitX=0.469;exitY=1.104;exitDx=0;exitDy=0;entryX=0.5;entryY=0;entryDx=0;entryDy=0;exitPerimeter=0;" edge="1" parent="1" source="k_N3MxR13cJNEKGU2N6l-82" target="k_N3MxR13cJNEKGU2N6l-56">
          <mxGeometry width="160" relative="1" as="geometry">
            <mxPoint x="299" y="-439" as="sourcePoint" />
            <mxPoint x="120" y="-439" as="targetPoint" />
          </mxGeometry>
        </mxCell>
        <mxCell id="k_N3MxR13cJNEKGU2N6l-98" value="&amp;lt;&amp;lt;Uses&amp;gt;&amp;gt;" style="endArrow=open;endSize=12;dashed=1;html=1;rounded=0;exitX=0.499;exitY=1.093;exitDx=0;exitDy=0;exitPerimeter=0;" edge="1" parent="1">
          <mxGeometry width="160" relative="1" as="geometry">
            <mxPoint x="397.75" y="-102" as="sourcePoint" />
            <mxPoint x="400" y="10" as="targetPoint" />
          </mxGeometry>
        </mxCell>
        <mxCell id="k_N3MxR13cJNEKGU2N6l-99" value="&amp;lt;&amp;lt;Uses&amp;gt;&amp;gt;" style="endArrow=open;endSize=12;dashed=1;html=1;rounded=0;exitX=0.499;exitY=1.093;exitDx=0;exitDy=0;exitPerimeter=0;" edge="1" parent="1">
          <mxGeometry width="160" relative="1" as="geometry">
            <mxPoint x="774" y="-76" as="sourcePoint" />
            <mxPoint x="776" y="10" as="targetPoint" />
          </mxGeometry>
        </mxCell>
        <mxCell id="k_N3MxR13cJNEKGU2N6l-100" value="&amp;lt;&amp;lt;Uses&amp;gt;&amp;gt;" style="endArrow=open;endSize=12;dashed=1;html=1;rounded=0;entryX=0.5;entryY=0;entryDx=0;entryDy=0;" edge="1" parent="1" target="k_N3MxR13cJNEKGU2N6l-7">
          <mxGeometry width="160" relative="1" as="geometry">
            <mxPoint x="399" y="78" as="sourcePoint" />
            <mxPoint x="392" y="212" as="targetPoint" />
          </mxGeometry>
        </mxCell>
        <mxCell id="k_N3MxR13cJNEKGU2N6l-101" value="&amp;lt;&amp;lt;Uses&amp;gt;&amp;gt;" style="endArrow=open;endSize=12;dashed=1;html=1;rounded=0;entryX=0.5;entryY=0;entryDx=0;entryDy=0;" edge="1" parent="1" target="k_N3MxR13cJNEKGU2N6l-21">
          <mxGeometry width="160" relative="1" as="geometry">
            <mxPoint x="774.29" y="78" as="sourcePoint" />
            <mxPoint x="774.29" y="230" as="targetPoint" />
          </mxGeometry>
        </mxCell>
      </root>
    </mxGraphModel>
  </diagram>
</mxfile>
